<svg width="58" height="38" viewBox="0 0 58 38" fill="none" xmlns="http://www.w3.org/2000/svg">
<path d="M56.0937 27.8769H47.324C46.8223 27.8769 46.4158 28.2836 46.4158 28.7851C46.4158 29.2867 46.8223 29.6933 47.324 29.6933H55.1855V30.2057L41.9613 32.7171H15.4528L2.22864 30.2057V29.6933H5.83966C5.84112 29.6933 5.84257 29.6936 5.8439 29.6936C5.84499 29.6936 5.8462 29.6933 5.84729 29.6933H9.11949C9.12058 29.6933 9.12155 29.6936 9.12264 29.6936C9.12434 29.6936 9.12615 29.6933 9.12785 29.6933H20.0163C20.0169 29.6933 20.0175 29.6935 20.0182 29.6935C20.0188 29.6935 20.0193 29.6933 20.0199 29.6933H23.2646C23.2656 29.6933 23.2665 29.6936 23.2675 29.6936C23.2685 29.6936 23.2696 29.6933 23.2705 29.6933H34.1436C34.1447 29.6933 34.1456 29.6936 34.1466 29.6936C34.1476 29.6936 34.1485 29.6933 34.1494 29.6933H43.9514C44.4531 29.6933 44.8597 29.2867 44.8597 28.7851C44.8597 28.2836 44.4531 27.8769 43.9514 27.8769H38.0934C39.178 27.1877 40.1903 26.3804 41.1003 25.471C42.4138 24.1569 43.4921 22.6706 44.3163 21.0637C45.4648 21.5315 46.6808 21.7689 47.9415 21.7689C53.2606 21.7689 57.5878 17.441 57.5878 12.1214C57.5878 6.80234 53.2606 2.47504 47.9415 2.47504C47.3651 2.47504 46.794 2.52723 46.2329 2.62786V2.10825C46.2329 0.945744 45.2871 0 44.1247 0H39.8294C39.3277 0 38.9212 0.406634 38.9212 0.908205C38.9212 1.40978 39.3277 1.81641 39.8294 1.81641H44.1247C44.2855 1.81641 44.4164 1.94731 44.4164 2.10825V3.65219H12.9962V2.10825C12.9962 1.94731 13.1271 1.81641 13.288 1.81641H36.4557C36.9574 1.81641 37.3639 1.40978 37.3639 0.908205C37.3639 0.406634 36.9574 0 36.4557 0H13.288C12.1255 0 11.1798 0.945744 11.1798 2.10825V13.0769C11.1798 14.4468 11.34 15.8048 11.6522 17.1239C10.174 16.6831 8.41255 17.0294 6.80539 18.1291C6.39137 18.4123 6.28529 18.9775 6.56853 19.3915C6.85189 19.8054 7.41715 19.9114 7.83105 19.6282C8.88433 18.9076 9.98968 18.6247 10.9037 18.8078L7.59565 23.7572C7.31689 24.1742 7.42902 24.7383 7.84595 25.0169C8.00095 25.1206 8.17641 25.1702 8.34982 25.1702C8.64299 25.1702 8.93071 25.0286 9.10569 24.7666L12.4147 19.8156C12.7579 20.325 12.9459 20.9916 12.9548 21.7686C12.9548 21.7689 12.9548 21.7692 12.9548 21.7695C12.9548 21.7712 12.9549 21.7729 12.9549 21.7746C12.9671 22.9744 12.5479 24.2722 11.7747 25.4289C11.3339 26.0885 10.8128 26.6541 10.2225 27.1123C9.81336 27.4328 9.38348 27.6891 8.94306 27.8769H6.07398C6.04116 27.8573 6.00847 27.8376 5.97589 27.8155C4.46379 26.8056 4.36813 24.1937 5.75805 21.8693C6.01549 21.4388 5.87527 20.8811 5.44478 20.6236C5.01453 20.3664 4.45665 20.5064 4.1992 20.937C3.31316 22.4186 2.88037 24.0694 2.98063 25.5853C3.03755 26.4455 3.26266 27.2206 3.63321 27.8768H1.32044C0.818744 27.8768 0.412231 28.2834 0.412231 28.785V30.9574C0.412231 31.3937 0.722474 31.7683 1.15103 31.8497L14.5065 34.386V37.0738C14.5065 37.5753 14.913 37.982 15.4147 37.982H41.9982C42.4999 37.982 42.9064 37.5753 42.9064 37.0738V34.3862L56.2631 31.8497C56.6916 31.7683 57.0019 31.3936 57.0019 30.9574V28.785C57.0019 28.2836 56.5952 27.8769 56.0937 27.8769ZM46.2327 13.0767V8.7798H46.2329C46.7591 8.50964 47.3411 8.36626 47.9415 8.36626C50.0121 8.36626 51.6966 10.0508 51.6966 12.1214C51.6966 14.192 50.0121 15.8765 47.9415 15.8765C47.2817 15.8765 46.6465 15.7052 46.0823 15.3821C46.1814 14.6238 46.2327 13.8542 46.2327 13.0767ZM45.7375 17.2393C46.4279 17.5374 47.1739 17.693 47.9415 17.693C51.0137 17.693 53.513 15.1937 53.513 12.1215C53.513 9.04935 51.0137 6.54997 47.9415 6.54997C47.3554 6.54997 46.7804 6.64164 46.2329 6.81808V4.56972C46.2329 4.56658 46.2333 4.56355 46.2333 4.5604C46.2333 4.55725 46.2329 4.55422 46.2329 4.55108V4.47975C46.7904 4.35527 47.3627 4.29145 47.9416 4.29145C52.259 4.29145 55.7716 7.8039 55.7716 12.1214C55.7716 16.4395 52.259 19.9525 47.9416 19.9525C46.9403 19.9525 45.9751 19.7659 45.0616 19.403C45.3337 18.6988 45.5588 17.9762 45.7375 17.2393ZM12.9962 5.4686H44.4164V8.26418C44.4164 8.26515 44.4164 8.26624 44.4164 8.26721V13.0768C44.4164 17.2732 42.7825 21.2188 39.816 24.1866C38.1724 25.8291 36.1593 27.102 33.9874 27.8769H23.4278C23.1349 27.7727 22.8434 27.6605 22.5556 27.5379C23.222 26.4902 23.4759 25.3245 23.2566 24.2136C23.2564 24.2121 23.2562 24.2108 23.256 24.2094C23.2556 24.2077 23.255 24.206 23.2548 24.2043C22.9653 22.759 21.9441 21.5699 20.3786 20.8557C18.9121 20.1866 17.1198 20.0134 15.3316 20.3685C15.169 20.4008 15.0078 20.4378 14.848 20.4783C13.6357 18.2122 12.9962 15.6687 12.9962 13.0769V5.4686V5.4686ZM13.2851 26.4381C14.1259 25.1802 14.6333 23.7695 14.7466 22.4026C15.0513 22.2999 15.3647 22.2138 15.6857 22.1499C17.9965 21.6912 20.2247 22.3865 21.1131 23.7094L15.2764 24.8696C14.7844 24.9674 14.4648 25.4454 14.5625 25.9374C14.6485 26.3695 15.0279 26.6686 15.4525 26.6686C15.5111 26.6686 15.5708 26.663 15.6305 26.651L21.4708 25.4899C21.3543 26.0874 21.0213 26.6863 20.4879 27.2366C20.4865 27.238 20.4851 27.2396 20.4838 27.2411C20.2614 27.4693 20.0098 27.6818 19.7359 27.8767H12.0996C12.5349 27.4474 12.932 26.9665 13.2851 26.4381ZM41.09 36.1658H16.3228V34.5335H41.09V36.1658Z" fill="#6B4532"/>
</svg>
